<?xml version="1.0" encoding="utf-8"?>
<!-- Generator: Adobe Illustrator 16.0.4, SVG Export Plug-In . SVG Version: 6.00 Build 0)  -->
<!DOCTYPE svg PUBLIC "-//W3C//DTD SVG 1.1//EN" "http://www.w3.org/Graphics/SVG/1.1/DTD/svg11.dtd">
<svg version="1.1" xmlns="http://www.w3.org/2000/svg" xmlns:xlink="http://www.w3.org/1999/xlink" x="0px" y="0px" width="70px"
	 height="58px" viewBox="0 0 70 58" enable-background="new 0 0 70 58" xml:space="preserve">
<g id="Artwork">
	<g id="_x38_33-diamond_x40_2x.png_2_">
		<g>
			<path fill="#6D6E71" d="M60,19.18c0-0.17-0.06-0.32-0.15-0.46l0.01-0.01L50.94,4.42l-0.01,0.01C50.76,4.18,50.5,4,50.18,4H19.82
				c-0.32,0-0.59,0.18-0.75,0.43l-0.01-0.01l-8.93,14.29l0.01,0.01C10.06,18.85,10,19.01,10,19.18c0,0.19,0.07,0.37,0.18,0.51
				l-0.01,0.01l24.11,33.93l0.01-0.01C34.45,53.84,34.7,54,35,54s0.55-0.16,0.71-0.38l0.01,0.01L59.83,19.7l-0.01-0.01
				C59.93,19.54,60,19.37,60,19.18z M36.26,5.78l7.03,12.5H26.71l7.03-12.5H36.26z M20.32,5.78h11.37l-7.03,12.5H12.51L20.32,5.78z
				 M12.62,20.07h11.89l8.17,28.23L12.62,20.07z M35,49.9l-8.63-29.82h17.27L35,49.9z M37.32,48.3l8.17-28.23h11.89L37.32,48.3z
				 M45.34,18.28l-7.03-12.5h11.37l7.81,12.5H45.34z"/>
		</g>
	</g>
</g>
<g id="Overlays" display="none">
</g>
<g id="Guides">
</g>
</svg>
