<?xml version="1.0" encoding="utf-8"?>
<!-- Generator: Adobe Illustrator 16.0.4, SVG Export Plug-In . SVG Version: 6.00 Build 0)  -->
<!DOCTYPE svg PUBLIC "-//W3C//DTD SVG 1.1//EN" "http://www.w3.org/Graphics/SVG/1.1/DTD/svg11.dtd">
<svg version="1.1" xmlns="http://www.w3.org/2000/svg" xmlns:xlink="http://www.w3.org/1999/xlink" x="0px" y="0px" width="70px"
	 height="58px" viewBox="0 0 70 58" enable-background="new 0 0 70 58" xml:space="preserve">
<g id="Artwork">
	<g id="_x38_42-chat-bubbles_x40_2x.png_2_">
		<g>
			<path fill="#6D6E71" d="M66.5,31.25c0-8.7-8.06-15.75-18-15.75c-1.07,0-2.1,0.1-3.12,0.25C42.78,7.81,34.59,2,24.88,2
				C13.07,2,3.5,10.56,3.5,21.12c0,4.71,1.91,9.01,5.06,12.34c-1.44,7.91,0.3,15.75,0.3,15.75c2.99-5.88,6.61-8.6,9.74-9.81
				c1.98,0.55,4.09,0.84,6.27,0.84c2.79,0,5.45-0.49,7.89-1.36c3.07,4.83,8.96,8.11,15.73,8.11c1.34,0,2.63-0.13,3.88-0.38
				c2.89,1.38,6.07,4.11,8.76,9.39c0,0,1.5-6.76,0.56-14.08C64.67,39.12,66.5,35.37,66.5,31.25z M24.88,38
				c-2.16,0-4.23-0.33-6.16-0.92c-2.73,0.79-5.83,2.52-8.35,6.2c0,0-0.63-5.08,0.67-10.54c-3.26-3.02-5.28-7.11-5.28-11.62
				c0-9.32,8.56-16.87,19.12-16.87c8.62,0,15.9,5.03,18.29,11.95c-7.34,1.99-12.67,7.97-12.67,15.05c0,1.98,0.44,3.87,1.2,5.62
				C29.58,37.59,27.28,38,24.88,38z M59.29,41.06c0.86,4.84,0.35,9,0.35,9c-2.14-3.13-4.71-4.85-7.12-5.78
				c-1.28,0.29-2.63,0.46-4.02,0.46c-8.7,0-15.75-6.04-15.75-13.49c0-7.46,7.05-13.5,15.75-13.5c8.7,0,15.75,6.04,15.75,13.5
				C64.25,35.12,62.34,38.59,59.29,41.06z"/>
		</g>
	</g>
</g>
<g id="Overlays" display="none">
</g>
<g id="Guides">
</g>
</svg>
