<?xml version="1.0" encoding="utf-8"?>
<!-- Generator: Adobe Illustrator 16.0.4, SVG Export Plug-In . SVG Version: 6.00 Build 0)  -->
<!DOCTYPE svg PUBLIC "-//W3C//DTD SVG 1.1//EN" "http://www.w3.org/Graphics/SVG/1.1/DTD/svg11.dtd">
<svg version="1.1" xmlns="http://www.w3.org/2000/svg" xmlns:xlink="http://www.w3.org/1999/xlink" x="0px" y="0px" width="52.87px"
	 height="50.58px" viewBox="0 0 52.87 50.58" enable-background="new 0 0 52.87 50.58" xml:space="preserve">
	<g>
		<path d="M4.43,5.22h17.81c0,0,8.23,0.55,10.29,0.71V0h2.77c0,0-1.18,4.75,3.01,4.75v9.26h-5.62V9.26c0,0-5.62,0.16-10.21,0.4H4.43
			V5.22z"/>
		<path d="M35.69,28.81c16.7-4.43,17.17-9.73,17.17-9.73h-14.8v-1.66H0v4.83h5.7c0,0,7.12-0.24,7.12,8.15
			c0,8.39-8.15,8.87-8.15,8.87v2.45H0v8.87h43.05V41.8h-4.99v-2.61c-6.09,0-5.7-5.39-5.7-5.39S31.65,30.95,35.69,28.81z
			 M12.36,41.78c0,0,3.56-2.67,9.11-2.67c5.55,0,9.11,2.67,9.11,2.67H12.36z"/>
	</g>
</svg>
