<?xml version="1.0" encoding="utf-8"?>
<!-- Generator: Adobe Illustrator 16.0.4, SVG Export Plug-In . SVG Version: 6.00 Build 0)  -->
<!DOCTYPE svg PUBLIC "-//W3C//DTD SVG 1.1//EN" "http://www.w3.org/Graphics/SVG/1.1/DTD/svg11.dtd">
<svg version="1.1" xmlns="http://www.w3.org/2000/svg" xmlns:xlink="http://www.w3.org/1999/xlink" x="0px" y="0px" width="100%" height="100%" viewBox="0 0 164.03 164.03" enable-background="new 0 0 164.03 164.03" xml:space="preserve">
	<g>
		<circle cx="82.02" cy="82.02" r="82.02"/>
		<g>
			<path fill="#FFFFFF" d="M55.04,50h26.09c0,0,12.05,0.81,15.07,1.04v-8.7h4.05c0,0-1.74,6.95,4.41,6.95v13.57h-8.23v-6.96
				c0,0-8.23,0.23-14.96,0.58H55.04V50z"/>
			<path fill="#FFFFFF" d="M100.83,84.55c24.46-6.49,25.15-14.25,25.15-14.25h-21.68v-2.44H48.55v7.07h8.35
				c0,0,10.43-0.35,10.43,11.94c0,12.29-11.94,12.99-11.94,12.99v3.59h-6.84v12.99h63.06v-12.86h-7.3v-3.83
				c-8.92,0-8.35-7.89-8.35-7.89S94.91,87.68,100.83,84.55z M66.65,103.55c0,0,5.22-3.91,13.34-3.91c8.13,0,13.35,3.91,13.35,3.91
				H66.65z"/>
		</g>
		<path fill="#FFFFFF" d="M82.02,157.65c-41.7,0-75.63-33.93-75.63-75.63S40.31,6.38,82.02,6.38c41.71,0,75.63,33.93,75.63,75.63
			S123.72,157.65,82.02,157.65z M82.02,7.26c-41.22,0-74.76,33.54-74.76,74.76s33.54,74.76,74.76,74.76
			c41.22,0,74.76-33.54,74.76-74.76S123.24,7.26,82.02,7.26z"/>
	</g>
</svg>
